<?xml version="1.0" encoding="UTF-8"?>
<svg width="101px" height="27px" viewBox="0 0 101 27" version="1.1" xmlns="http://www.w3.org/2000/svg" xmlns:xlink="http://www.w3.org/1999/xlink">
    <title>firstbank</title>
    <g id="Page-1" stroke="none" stroke-width="1" fill="none" fill-rule="evenodd">
        <g id="payment-icons" transform="translate(-3150.000000, -1239.000000)" fill-rule="nonzero">
            <g id="firstbank" transform="translate(3150.000000, 1239.000000)">
                <path d="M4.84068044e-14,17.9562044 C0.267639903,17.323601 0.324412003,16.6423358 0.470397405,15.9772912 C1.16788321,12.6926196 1.84103812,9.39983779 2.51419303,6.10705596 C2.58718573,5.74209246 2.76561233,5.58799676 3.14679643,5.58799676 C5.18248175,5.60421736 7.21816707,5.59610706 9.26196269,5.60421736 C9.7161395,5.60421736 9.7729116,5.68532036 9.6836983,6.13949716 C9.42416869,7.39659367 9.5458232,7.21816707 8.35360908,7.22627737 C7.21005677,7.23438767 6.05839416,7.23438767 4.91484185,7.22627737 C4.67964315,7.22627737 4.58231955,7.29927007 4.54176805,7.52635848 C4.32278994,8.63746959 4.10381184,9.7404704 3.86050284,10.8434712 C3.79562044,11.135442 3.89294404,11.1597729 4.12814274,11.1516626 C5.14193025,11.1435523 6.15571776,11.1435523 7.16139497,11.1516626 C7.67234388,11.1516626 7.72100568,11.2003244 7.62368208,11.6788321 C7.37226277,12.919708 7.49391727,12.7737226 6.30170316,12.7737226 C5.45012165,12.7737226 4.59854015,12.7818329 3.75506894,12.7656123 C3.51987024,12.7656123 3.43876723,12.8304947 3.39010543,13.0656934 C3.07380373,14.6472019 2.74128143,16.2287105 2.41686942,17.810219 C2.29521492,18.4103812 2.25466342,18.4509327 1.64639092,18.4347121 C1.09489051,18.4184915 0.543390105,18.5158151 4.84068044e-14,18.3536091 C4.84068044e-14,18.2238443 4.84068044e-14,18.0859692 4.84068044e-14,17.9562044 Z" id="Path" fill="#163152"></path>
                <g id="Group-109" transform="translate(74.663252, 0.000000)">
                    <path d="M9.73253062,26.6666667 C6.64250628,26.6666667 3.55248195,26.6666667 0.454347323,26.6666667 C-0.040380982,26.6666667 -0.0484912821,26.6666667 0.0488323189,26.2043796 C1.18427433,20.8759124 2.31971634,15.5474453 3.46326865,10.2189781 C3.51193045,10 3.49570985,9.8134631 3.41460685,9.594485 C2.97665065,8.42660178 2.95231975,7.22627737 3.12263605,6.00973236 C3.23618025,5.20681265 3.41460685,4.42011354 3.64169525,3.64963504 C3.81201156,3.07380373 4.10398236,2.83049473 4.68792397,2.83860503 C4.96367417,2.83860503 5.05288747,2.73317113 5.10154927,2.48986212 C5.23942437,1.77615572 5.40163037,1.07055961 5.53950547,0.356853204 C5.58816727,0.113544201 5.66927028,5.9932234e-14 5.95313078,5.9932234e-14 C12.230503,0.00811030008 18.5078753,0.00811030008 24.7852476,5.9932234e-14 C25.1339905,5.9932234e-14 25.1339905,0.113544201 25.0772184,0.397404704 C24.1850854,4.65531225 23.2767318,8.92133009 22.3683781,13.1873479 C22.2548339,13.7388483 22.2467236,13.7226277 22.8225549,13.7388483 C23.4308275,13.7631792 24.0309897,13.6334144 24.6392622,13.730738 C24.8825712,13.7712895 25.1502111,13.7875101 25.2313141,14.0632603 C25.3286377,14.3714517 25.1664317,14.6147607 24.931233,14.8012976 C24.3391811,15.2798054 23.6254747,15.4176805 22.9036579,15.5231144 C22.5630253,15.5717762 22.1088485,15.4987835 21.8979807,15.6853204 C21.6871129,15.8799676 21.7033335,16.3341444 21.6303408,16.674777 C20.9409653,19.8702352 20.2597001,23.0656934 19.5865452,26.269262 C19.5216628,26.5855637 19.4081186,26.674777 19.0918169,26.674777 C15.9693514,26.6666667 12.8549961,26.6666667 9.73253062,26.6666667 Z M19.2864641,12.8629359 C19.3026847,12.8061638 19.3189053,12.7656123 19.310795,12.7331711 C19.2540229,11.3706407 18.9782727,10.0892133 17.9969264,9.05920519 C17.8022792,8.85644769 17.6562938,8.60502839 17.4616466,8.40227088 C17.28322,8.20762368 17.202117,8.01297648 17.2751097,7.74533658 C17.3562127,7.46147607 17.2507788,7.23438767 17.0723522,6.99918897 C16.3262046,6.01784266 15.417851,5.19870235 14.5338283,4.33901054 C14.0634309,3.87672344 13.5200408,3.64963504 12.8874373,3.58475264 C12.717121,3.56853204 12.5386944,3.52798054 12.3683781,3.51175994 C11.5654584,3.43876723 10.7463181,3.33333333 10.0488323,3.90105434 C9.91095722,4.01459854 9.74875122,4.00648824 9.58654521,3.98215734 C8.92150061,3.88483374 8.2483457,3.78751014 7.58330109,3.69018654 C6.69927839,3.56853204 5.82336598,3.42254663 4.93934327,3.32522303 C4.39595316,3.26845093 4.24996776,3.39010543 4.09587206,3.90916464 C3.89311456,4.59042985 3.74712916,5.28791565 3.63358495,5.99351176 C3.13074635,9.14030819 4.56626946,11.7112733 7.51030839,12.9359286 C9.06748601,13.5847526 10.7057666,13.811841 12.3764884,13.8523925 C13.1631876,13.8686131 13.3740554,13.7388483 13.7065777,13.0251419 C13.8282322,12.757502 13.876894,12.514193 13.5768129,12.3357664 C13.3659451,12.2060016 13.3821657,12.0519059 13.5200408,11.865369 C13.9012249,11.3463098 14.3878429,10.9813463 15.0204463,10.8434712 C15.6530497,10.7055961 16.228881,10.7461476 16.7560505,11.216545 C17.3237715,11.7112733 17.9644852,12.1248986 18.6051989,12.514193 C18.8160667,12.6520681 19.0269345,12.7980535 19.2864641,12.8629359 Z M13.1631876,25.7664234 C13.0658639,24.7688564 13.6579159,23.9821573 13.9498867,23.0981346 C13.9823279,23.0089213 14.0309897,22.9278183 14.0553206,22.838605 C14.0796515,22.7331711 14.1039824,22.6277372 14.0958721,22.5223033 C14.0877618,22.0762368 14.0553206,21.6382806 14.0553206,21.1922141 C14.0553206,20.9164639 13.9823279,20.6731549 13.8282322,20.4379562 C13.3010627,19.6107056 12.798224,18.7672344 12.2710545,17.9318735 C12.1575103,17.7453366 12.0926279,17.5831306 12.1818412,17.3722628 C12.4819223,16.6261152 12.4819223,15.8556367 12.3764884,15.0689376 C12.3440472,14.8418491 12.2872751,14.7769667 12.0601867,14.7769667 C11.4519142,14.7769667 10.851752,14.7201946 10.2434795,14.6309813 C8.0293676,14.3146796 6.11533678,13.4306569 4.66359307,11.6707218 C4.46083556,11.4274128 4.27429866,11.1678832 4.03098966,10.8515815 C3.83634246,11.7599351 3.66602616,12.595296 3.48759955,13.4306569 C3.08208455,15.3527981 2.67656955,17.2749392 2.27105454,19.1970803 C2.23861334,19.3349554 2.14940004,19.513382 2.38459874,19.5458232 C2.70090045,19.5863747 3.00909185,19.6593674 3.33350385,19.5377129 C4.39595316,19.1484185 5.47462307,18.7915653 6.53707238,18.4184915 C6.69116809,18.3617194 6.82904319,18.3049473 6.99124919,18.4184915 C8.68630191,19.6188159 10.3813546,20.81103 12.1250691,22.0437956 C11.5654584,22.3925385 11.0463992,22.7169505 10.5192297,23.0413625 C10.0731632,23.3171127 10.0731632,23.3171127 10.4624576,23.6415247 C11.2329361,24.2822384 11.9953043,24.9148418 12.7657828,25.5474453 C12.879327,25.6366586 12.96043,25.7664234 13.1631876,25.7664234 Z M6.78849169,18.9618816 C6.78849169,19.7729116 6.78038139,20.4947283 6.78849169,21.216545 C6.79660199,21.5166261 6.73982989,21.7923763 6.61817538,22.0762368 C6.21266038,23.0170316 5.82336598,23.9578264 5.43407157,24.9067315 C5.27997587,25.2879157 5.61249817,25.9529603 5.96935138,25.9610706 C6.96691829,25.9691809 7.9644852,25.9610706 8.96205211,25.9691809 C9.22158171,25.9691809 9.24591261,25.863747 9.11614781,25.6934307 C8.84039761,25.3041363 8.88905941,24.8986212 8.98638301,24.4687753 C9.22158171,23.406326 9.43244951,22.3357664 9.65142761,21.2733171 C9.67575852,21.135442 9.70819972,21.0137875 9.56221431,20.9164639 C8.661971,20.2757502 7.7617277,19.6431468 6.78849169,18.9618816 Z M21.3789215,15.1987024 C22.6684592,15.1987024 23.9255558,14.9635036 24.4365047,14.6553122 C24.5987107,14.5579886 24.8095785,14.460665 24.7528064,14.2416869 C24.6960343,14.0227088 24.4608356,14.0875912 24.2986296,14.0875912 C23.6416953,14.0875912 22.9847609,14.1930251 22.3197163,14.1200324 C20.1867074,13.892944 18.3456693,12.9927007 16.634396,11.7599351 C16.0261235,11.3219789 15.0366669,11.4193025 14.525718,11.9626926 C14.3391811,12.1573398 14.3554017,12.2789943 14.5581592,12.4493106 C16.5776239,14.1524736 18.8809491,15.13382 21.3789215,15.1987024 Z M16.5127415,14.4201135 C16.796602,15.3203569 16.634396,16.1151663 16.5046312,16.9099757 C16.3180943,18.053528 16.1072265,19.18897 16.147778,20.3568532 C16.1639986,20.7866991 16.2937634,21.1759935 16.5614033,21.5166261 C16.9506977,22.0113544 17.7373968,22.2141119 18.2402354,21.9789132 C18.6051989,21.8004866 18.418662,21.4922952 18.4267723,21.2327656 C18.4348826,20.9894566 18.256456,21.0218978 18.0861397,21.0218978 C17.6725144,21.0056772 17.4859775,20.7704785 17.5184187,20.3568532 C17.5427496,20.0729927 17.6400732,19.8053528 17.7536174,19.5458232 C18.1915736,18.5320357 18.6457504,17.5263585 19.0918169,16.5206813 C19.2134714,16.2449311 19.2945744,15.9691809 19.3270156,15.6690998 C19.3432362,15.5068938 19.2864641,15.4176805 19.1242581,15.3933496 C18.2402354,15.2473642 17.4210951,14.8986212 16.5127415,14.4201135 Z" id="Shape" fill="#F2A81F"></path>
                    <path d="M19.2864641,12.8629359 C19.0269345,12.7980535 18.8160667,12.6439578 18.6051989,12.514193 C17.9563749,12.1167883 17.3156612,11.7112733 16.7560505,11.216545 C16.228881,10.7542579 15.6530497,10.7137064 15.0204463,10.8434712 C14.3797326,10.9813463 13.9012249,11.3463098 13.5200408,11.865369 C13.3821657,12.0519059 13.3659451,12.2060016 13.5768129,12.3357664 C13.876894,12.5223033 13.8282322,12.757502 13.7065777,13.0251419 C13.3821657,13.7388483 13.1631876,13.8686131 12.3764884,13.8523925 C10.7057666,13.811841 9.06748601,13.5847526 7.51030839,12.9359286 C4.56626946,11.7112733 3.13074635,9.13219789 3.63358495,5.99351176 C3.74712916,5.28791565 3.89311456,4.59042985 4.09587206,3.90916464 C4.24996776,3.39010543 4.39595316,3.26034063 4.93934327,3.32522303 C5.82336598,3.42254663 6.70738869,3.56042174 7.58330109,3.69018654 C8.2483457,3.78751014 8.92150061,3.88483374 9.58654521,3.98215734 C9.74875122,4.00648824 9.91095722,4.01459854 10.0488323,3.90105434 C10.7544284,3.34144363 11.5654584,3.44687753 12.3683781,3.51175994 C12.5468047,3.52798054 12.717121,3.56853204 12.8874373,3.58475264 C13.5200408,3.64963504 14.0634309,3.87672344 14.5338283,4.33901054 C15.4097407,5.19870235 16.3180943,6.01784266 17.0723522,6.99918897 C17.2507788,7.22627737 17.3562127,7.46147607 17.2751097,7.74533658 C17.202117,8.01297648 17.28322,8.20762368 17.4616466,8.40227088 C17.6562938,8.61313869 17.8022792,8.85644769 17.9969264,9.05920519 C18.986383,10.0892133 19.2540229,11.378751 19.310795,12.7331711 C19.3189053,12.7737226 19.3026847,12.8061638 19.2864641,12.8629359 Z M13.9661073,8.02108678 C13.6498056,7.68856448 13.3659451,7.40470397 13.0901948,7.11273317 C13.0009815,7.01540957 12.9198785,6.99918897 12.8144446,7.09651257 C12.3683781,7.49391727 11.9142013,7.87510138 11.4681348,8.27250608 C11.4843554,8.29683698 11.4924657,8.32927818 11.5086863,8.35360908 C12.3197163,8.24817518 13.122636,8.13463098 13.9661073,8.02108678 Z" id="Shape" fill="#163152"></path>
                    <path d="M13.1631876,25.7664234 C12.96043,25.7664234 12.879327,25.6366586 12.7820034,25.5555556 C12.0115249,24.9229521 11.2410464,24.2822384 10.4786782,23.649635 C10.0893838,23.325223 10.0893838,23.325223 10.5354503,23.0494728 C11.0626198,22.7250608 11.581679,22.4006488 12.1412897,22.0519059 C10.3975752,20.8191403 8.70252251,19.6269262 7.00746979,18.4266018 C6.84526379,18.3130576 6.70738869,18.3698297 6.55329298,18.4266018 C5.48273337,18.7996756 4.41217376,19.1565288 3.34972445,19.5458232 C3.01720215,19.6674777 2.70901075,19.594485 2.40081934,19.5539335 C2.16562064,19.5214923 2.25483394,19.3430657 2.28727514,19.2051906 C2.69279015,17.2830495 3.09830515,15.3609084 3.50382015,13.4387672 C3.68224676,12.6034063 3.85256306,11.7680454 4.04721026,10.8596918 C4.29051926,11.1759935 4.47705616,11.4355231 4.67981367,11.6788321 C6.13155738,13.4306569 8.0455882,14.3227899 10.2597001,14.6390916 C10.8598623,14.7283049 11.4681348,14.7769667 12.0764073,14.785077 C12.2953854,14.785077 12.3602678,14.8499594 12.392709,15.0770479 C12.4981429,15.863747 12.4981429,16.6342255 12.1980618,17.3803731 C12.1088485,17.5993512 12.1737309,17.7615572 12.2872751,17.9399838 C12.8144446,18.7753447 13.3172833,19.6188159 13.8444528,20.4460665 C13.9985485,20.6812652 14.0715412,20.9245742 14.0715412,21.2003244 C14.0715412,21.6463909 14.1039824,22.0843471 14.1120927,22.5304136 C14.1120927,22.6358475 14.0958721,22.7412814 14.0715412,22.8467153 C14.0472103,22.9359286 13.9985485,23.0170316 13.9661073,23.1062449 C13.6579159,23.9821573 13.0658639,24.7688564 13.1631876,25.7664234 Z" id="Path" fill="#163152"></path>
                    <path d="M6.78849169,18.9618816 C7.7617277,19.6431468 8.661971,20.2757502 9.57032461,20.9002433 C9.71631002,20.9975669 9.68386882,21.1192214 9.65953791,21.2570965 C9.44055981,22.3195458 9.22969201,23.3901054 8.99449331,24.4525547 C8.89716971,24.8824006 8.84039761,25.2879157 9.12425811,25.6772101 C9.25402291,25.8556367 9.22969201,25.9610706 8.97016241,25.9529603 C7.9725955,25.94485 6.97502859,25.9529603 5.97746168,25.94485 C5.62060847,25.94485 5.27997587,25.2716951 5.44218187,24.8905109 C5.83147628,23.9497161 6.22077068,23.000811 6.62628568,22.0600162 C6.74794019,21.784266 6.80471229,21.5085158 6.79660199,21.2003244 C6.78038139,20.4947283 6.78849169,19.7729116 6.78849169,18.9618816 Z" id="Path" fill="#163152"></path>
                    <path d="M21.3789215,15.1987024 C18.8809491,15.1419303 16.5776239,14.1524736 14.5419386,12.4493106 C14.3391811,12.2789943 14.3310708,12.1492295 14.5094974,11.9626926 C15.0285566,11.4193025 16.0099029,11.3219789 16.6181754,11.7599351 C18.3294487,12.9927007 20.1704868,13.892944 22.3034957,14.1200324 C22.9685403,14.1930251 23.6254747,14.0875912 24.282409,14.0875912 C24.444615,14.0875912 24.6798137,14.0227088 24.7365858,14.2416869 C24.8014682,14.4687753 24.5824901,14.5660989 24.4202841,14.6553122 C23.9255558,14.9553933 22.6684592,15.1905921 21.3789215,15.1987024 Z" id="Path" fill="#163152"></path>
                    <path d="M16.5127415,14.4201135 C17.4210951,14.8986212 18.2402354,15.2473642 19.1242581,15.3933496 C19.2945744,15.4176805 19.3432362,15.5068938 19.3270156,15.6690998 C19.2945744,15.9691809 19.2134714,16.2449311 19.0918169,16.5206813 C18.6457504,17.5263585 18.1915736,18.5320357 17.7536174,19.5458232 C17.6400732,19.8053528 17.5427496,20.0729927 17.5184187,20.3568532 C17.4859775,20.7704785 17.6806247,20.9975669 18.0861397,21.0218978 C18.256456,21.0300081 18.4348826,20.9894566 18.4267723,21.2327656 C18.418662,21.4922952 18.6051989,21.8004866 18.2402354,21.9789132 C17.7373968,22.2141119 16.9506977,22.0113544 16.5614033,21.5166261 C16.2937634,21.1759935 16.1639986,20.7866991 16.147778,20.3568532 C16.1072265,19.18897 16.3180943,18.053528 16.5046312,16.9099757 C16.634396,16.1151663 16.796602,15.3284672 16.5127415,14.4201135 Z" id="Path" fill="#163152"></path>
                    <path d="M13.9661073,8.02108678 C13.122636,8.13463098 12.3197163,8.24817518 11.5167966,8.35360908 C11.500576,8.32927818 11.4924657,8.29683698 11.4762451,8.27250608 C11.9223116,7.88321168 12.3764884,7.49391727 12.8225549,7.09651257 C12.9279888,7.00729927 13.0009815,7.01540957 13.0983051,7.11273317 C13.3659451,7.40470397 13.6498056,7.68856448 13.9661073,8.02108678 Z" id="Path" fill="#F2A81F"></path>
                </g>
                <path d="M40.6569343,5.75831306 C41.7193836,5.94484996 42.7088402,6.34225466 43.0656934,7.46958637 C43.4387672,8.67802109 43.0900243,9.7810219 42.270884,10.729927 C41.9221411,11.1435523 41.459854,11.4274128 40.892133,11.6950527 C41.0867802,11.7518248 41.2003244,11.784266 41.3138686,11.8167072 C42.43309,12.1411192 43.0656934,13.0656934 42.9683698,14.2254663 C42.8061638,16.2449311 41.1922141,17.9562044 39.0754258,18.3698297 C38.4347121,18.4914842 37.7858881,18.4752636 37.1370641,18.4752636 C36.0989457,18.4752636 35.0608273,18.4833739 34.0145985,18.4752636 C33.5766423,18.4752636 33.5117599,18.3941606 33.6009732,17.972425 C34.4120032,14.0227088 35.2311436,10.0648824 36.0502839,6.11516626 C36.107056,5.83941606 36.2206002,5.61232766 36.5369019,5.62043796 C36.843291,5.62764711 37.1496801,5.62644559 37.4558912,5.62288551 L38.3738125,5.61118176 C39.1380053,5.60561914 39.899973,5.62314139 40.6569343,5.75831306 Z M39.3592863,12.7737226 C38.6374696,12.6115166 37.9075426,12.7169505 37.1776156,12.6926196 L37.1776156,12.6926196 L37.1695053,12.6926196 C37.0174371,12.6865369 36.9839822,12.7762571 36.9664943,12.8728204 L36.9505272,12.9683698 L36.9505272,12.9683698 C36.7477697,13.9253852 36.5531225,14.8905109 36.3584753,15.8556367 C36.2935929,16.1962693 36.0665045,16.6666667 36.2124899,16.8532036 C36.3875128,17.0792749 36.8051589,16.9381327 37.1647184,16.9427526 L37.2830495,16.9505272 C37.6074615,16.9343066 37.9562044,16.9424169 38.3130576,16.9018654 C39.7080292,16.7477697 40.6163828,15.7339822 40.6244931,14.3471208 C40.6244931,13.4955393 40.2027575,12.9602595 39.3592863,12.7737226 Z M38.0859692,7.51013788 C37.8994323,8.48337388 37.6966748,9.45660989 37.4939173,10.4298459 C37.3483824,11.1192214 37.3402972,11.1575201 37.9547539,11.1596478 L38.0697486,11.1597729 L38.0697486,11.1597729 C39.6836983,11.1597729 40.8434712,10.1054339 40.8596918,8.62124899 L40.8572517,8.46634484 C40.8227875,7.86348781 40.4922328,7.46209994 39.8783455,7.27493917 C39.7923763,7.24898621 39.7057583,7.22887267 39.6186212,7.21310624 L39.3557826,7.17502028 C39.0916464,7.14776967 38.8240065,7.14679643 38.5563666,7.13706407 C38.2562855,7.12084347 38.1427413,7.21816707 38.0859692,7.51013788 Z" id="Combined-Shape" fill="#163152"></path>
                <path d="M49.9351176,9.05109489 C50.6731549,9.20519059 51.2408759,9.6025953 51.6463909,10.2838605 C51.6869424,10.1946472 51.7112733,10.1540957 51.7274939,10.1135442 C51.8896999,9.8215734 51.8572587,9.35928629 52.1978913,9.26196269 C52.7088402,9.10786699 53.2684509,9.15652879 53.8037307,9.23763179 C54.0957015,9.27818329 53.9821573,9.5620438 53.9416058,9.7404704 C53.6982968,10.9813463 53.4387672,12.2222222 53.1873479,13.4549878 C53.000811,14.3633414 52.8142741,15.2716951 52.6439578,16.188159 C52.5790754,16.5612328 52.5709651,16.9343066 53.1062449,16.9910787 C53.2684509,17.0072993 53.3171127,17.1532847 53.2846715,17.2992701 C53.2278994,17.5912409 53.1711273,17.8832117 53.1062449,18.1670722 C53.0575831,18.37794 52.9034874,18.4914842 52.6926196,18.4914842 C52.2465531,18.5077048 51.8004866,18.4752636 51.378751,18.3130576 C50.8515815,18.1021898 50.648824,17.6723439 50.5190592,17.080292 C50.405515,17.2100568 50.3081914,17.3560422 50.1865369,17.4776967 C48.9699919,18.6293593 47.5182482,18.9537713 45.9205191,18.5644769 C44.7769667,18.2887267 44.0875912,17.3965937 44.0145985,16.0502839 C43.9091646,14.2579075 44.298459,12.5628548 45.2554745,11.0381184 C46.2935929,9.38361719 48.0616383,8.66180049 49.9351176,9.05109489 Z M47.1648723,11.5993689 L47.1370641,11.6463909 C46.7721006,12.270884 46.5693431,12.9521492 46.431468,13.649635 L46.4361189,13.6274981 C46.4345631,13.6348752 46.4330128,13.6422542 46.431468,13.649635 C46.269262,14.4687753 46.0665045,15.2798054 46.2368208,16.1232766 C46.3665856,16.7964315 46.7072182,17.0965126 47.3884834,17.161395 C48.7185726,17.2992701 49.7729116,16.7315491 50.3568532,15.5312247 L50.4263714,15.3837063 C50.8319321,14.4939881 51.0167702,13.5536761 51.0705596,12.7007299 C51.0867802,11.7599351 50.9489051,11.0300081 50.1054339,10.6650446 L50.1054339,10.6650446 C49.0109931,10.1857275 47.7827833,10.5798431 47.1648723,11.5993689 Z" id="Combined-Shape" fill="#163152"></path>
                <path d="M69.6269262,5.63665856 C69.0997567,8.18329278 68.5969181,10.6244931 68.0940795,13.0738037 C68.1184104,13.0900243 68.1427413,13.1062449 68.1589619,13.1143552 C68.5888078,12.7007299 69.0105434,12.2789943 69.4403893,11.865369 C70.2108678,11.1111111 70.9813463,10.3568532 71.7356042,9.5863747 C71.9870235,9.33495539 72.270884,9.19708029 72.6358475,9.21330089 C73.0494728,9.22952149 73.4712084,9.22141119 73.892944,9.22952149 C74.0064882,9.22952149 74.1605839,9.16463909 74.2092457,9.31873479 C74.2497972,9.45660989 74.1038118,9.5214923 74.0145985,9.6025953 C72.676399,10.8596918 71.3463098,12.1167883 69.9918897,13.3495539 C69.7080292,13.6090835 69.6431468,13.7793998 69.8783455,14.1281427 C70.729927,15.4014599 71.5490673,16.7072182 72.3682076,17.9967559 C72.4493106,18.1265207 72.6277372,18.2481752 72.5223033,18.4184915 C72.4249797,18.5806975 72.2222222,18.5077048 72.0681265,18.5077048 C71.5815085,18.5158151 71.0948905,18.4995945 70.6082725,18.5158151 C70.2757502,18.5239254 70.0567721,18.3941606 69.8864558,18.1021898 C69.2538524,16.9910787 68.5969181,15.8961882 67.9480941,14.7931873 C67.9075426,14.7283049 67.891322,14.6390916 67.7534469,14.6066504 C67.5263585,15.6934307 67.3073804,16.7721006 67.080292,17.8588808 C66.9505272,18.4752636 66.9018654,18.5158151 66.2854826,18.5158151 C65.9367397,18.5158151 65.5798865,18.5158151 65.2311436,18.5158151 C64.8986212,18.5158151 64.7688564,18.3860503 64.8418491,18.0373074 C65.5961071,14.4201135 66.350365,10.7948094 67.1046229,7.17761557 C67.1370641,7.03974047 67.1370641,6.89375507 67.3073804,6.80454177 C68.0616383,6.43146796 68.8077859,6.05028386 69.6269262,5.63665856 Z" id="Path" fill="#163152"></path>
                <path d="M58.1427413,10.6163828 C58.3698297,10.3568532 58.5320357,10.1784266 58.6942417,10 C59.8053528,8.74290349 61.3544201,8.83211679 62.4087591,9.25385239 C63.6253041,9.7404704 64.1849148,10.9326845 63.892944,12.43309 C63.6658556,13.6090835 63.406326,14.7769667 63.1711273,15.9529603 C63.1305758,16.1476075 63.1224655,16.3584753 63.1386861,16.5531225 C63.1549067,16.75588 63.2278994,16.9586375 63.4955393,16.9748581 C63.7550689,16.9910787 63.8037307,17.1532847 63.7631792,17.3641525 C63.7631792,17.3803731 63.7631792,17.3884834 63.7550689,17.404704 C63.6334144,18.3373885 63.5442011,18.4833739 63.081914,18.4914842 C61.8896999,18.5239254 61.1030008,18.053528 60.9245742,17.2019465 C60.7704785,16.4639092 60.9975669,15.7583131 61.135442,15.052717 C61.2895377,14.2335766 61.4679643,13.4225466 61.62206,12.6034063 C61.703163,12.1735604 61.6950527,11.7437145 61.5652879,11.3219789 C61.4111922,10.8191403 61.054339,10.5433901 60.5271695,10.5190592 C59.6025953,10.486618 58.9618816,10.9326845 58.5239254,11.7112733 C58.134631,12.4006488 58.0048662,13.1792376 57.8426602,13.9416058 C57.56691,15.2716951 57.2911598,16.6017843 57.0154096,17.9318735 C56.9099757,18.4347121 56.8288727,18.4995945 56.3017032,18.4995945 C55.9529603,18.4995945 55.5961071,18.4995945 55.2473642,18.4995945 C54.7688564,18.4914842 54.6958637,18.4103812 54.785077,17.9480941 C55.1662612,16.0908354 55.5555556,14.2335766 55.9367397,12.3763179 C56.0016221,12.0437956 56.0908354,11.7193836 56.1232766,11.3868613 C56.1638281,11.0624493 56.1151663,10.7542579 55.6853204,10.7137064 C55.5717762,10.7055961 55.4663423,10.6326034 55.4744526,10.5109489 C55.4906732,10.1054339 55.5555556,9.7080292 55.7420925,9.34306569 C55.7907543,9.24574209 55.9124088,9.21330089 56.025953,9.20519059 C56.512571,9.18896999 56.999189,9.20519059 57.4533658,9.39983779 C57.9480941,9.6107056 58.1103001,10.0324412 58.1427413,10.6163828 Z" id="Path" fill="#163152"></path>
                <path d="M24.7201946,8.92133009 C25.5555556,8.97810219 26.3584753,9.10786699 27.0965126,9.5296026 C27.5993512,9.8134631 27.6317924,10 27.2587186,10.4298459 C27.2506083,10.4379562 27.242498,10.4460665 27.2343877,10.4622871 C26.7315491,11.0300081 26.7315491,11.0381184 25.9935118,10.7866991 C25.2798054,10.5433901 24.5660989,10.3892944 23.811841,10.5271695 C23.2278994,10.6326034 22.8304947,10.9570154 22.6439578,11.5166261 C22.4898621,11.9789132 22.6601784,12.3195458 23.1224655,12.4655312 C23.8037307,12.6845093 24.4849959,12.8791565 25.1662612,13.0981346 C26.4882401,13.5198702 26.9343066,14.2660178 26.6909976,15.6123277 C26.3828062,17.2749392 25.2473642,18.1021898 23.730738,18.5077048 C22.514193,18.8321168 21.297648,18.7266829 20.0973236,18.37794 C20.0324412,18.3617194 19.9675588,18.3373885 19.9026764,18.3130576 C19.5701541,18.1670722 19.1484185,18.053528 19.1403082,17.6236821 C19.1321979,17.2019465 19.5377129,16.9748581 19.8134631,16.7153285 C19.9594485,16.5774534 20.1784266,16.6828873 20.3568532,16.7477697 C21.1516626,17.0316302 21.9626926,17.2181671 22.8142741,17.1451744 C23.5117599,17.0884023 24.1605839,16.9261963 24.4525547,16.1800487 C24.6309813,15.7177616 24.5336577,15.4501217 24.0957015,15.2068127 C23.4630981,14.86618 22.757502,14.703974 22.0762368,14.4931062 C20.6974858,14.05515 20.1784266,13.1792376 20.486618,11.7761557 C20.8191403,10.2676399 22.0519059,9.19708029 23.6820762,8.99432279 C24.0227088,8.95377129 24.3714517,8.94566099 24.7201946,8.92133009 Z" id="Path" fill="#163152"></path>
                <path d="M32.9521492,6.33414436 C32.8061638,7.08029197 32.676399,7.75344688 32.5385239,8.41849148 C32.3844282,9.16463909 32.3844282,9.16463909 33.1549067,9.16463909 C33.2765612,9.16463909 33.3982157,9.16463909 33.5198702,9.16463909 C33.7956204,9.18085969 33.9091646,9.31062449 33.8442822,9.5863747 C33.8442822,9.6025953 33.8361719,9.6107056 33.8361719,9.6269262 C33.6415247,10.6082725 33.6415247,10.6326034 32.6115166,10.6001622 C32.1978913,10.5839416 32.0437956,10.6893755 31.9626926,11.1192214 C31.6788321,12.6682887 31.3381995,14.2011354 31.0300081,15.7420925 C30.8596918,16.593674 31.0462287,16.836983 31.8978102,16.9261963 C32.1735604,16.9586375 32.2789943,17.0721817 32.2222222,17.3479319 C31.9626926,18.5806975 32.108678,18.4509327 30.9002433,18.4509327 C30.7380373,18.4509327 30.5758313,18.4428224 30.4136253,18.4266018 C29.2457421,18.3211679 28.6374696,17.6317924 28.7185726,16.4557989 C28.7915653,15.3933496 29.0997567,14.3714517 29.2944039,13.325223 C29.4484996,12.5223033 29.6188159,11.7193836 29.7972425,10.9164639 C29.8621249,10.6326034 29.7810219,10.5758313 29.5052717,10.5839416 C28.4347121,10.6163828 28.5563666,10.6001622 28.7510138,9.6431468 C28.8240065,9.26196269 29.0429846,9.14030819 29.3998378,9.14030819 C30.1703163,9.14030819 30.2108678,9.13219789 30.3000811,8.38605028 C30.3730738,7.77777778 30.6163828,7.39659367 31.2084347,7.16950527 C31.784266,6.98296837 32.3195458,6.65855637 32.9521492,6.33414436 Z" id="Path" fill="#163152"></path>
                <path d="M16.9748581,10.1946472 C17.6885645,9.40794809 18.5158151,9.05109489 19.4971614,9.02676399 C20.0405515,9.01865369 20.0648824,9.02676399 19.9513382,9.5458232 C19.8783455,9.8864558 19.8053528,10.2270884 19.7323601,10.5758313 C19.675588,10.8759124 19.513382,10.9975669 19.18897,10.9651257 C17.8669911,10.8272506 17.1208435,11.3625304 16.8288727,12.6682887 C16.4233577,14.4525547 16.025953,16.2368208 15.6528792,18.0210868 C15.5717762,18.3941606 15.3933496,18.5482563 15.0121655,18.5239254 C14.6634225,18.4995945 14.3146796,18.5158151 13.9578264,18.5158151 C13.3901054,18.5158151 13.3333333,18.4509327 13.4549878,17.9156529 C13.9010543,15.8799676 14.3390105,13.8442822 14.785077,11.8085969 C14.8256285,11.62206 14.86618,11.4355231 14.8742903,11.2489862 C14.8742903,10.9651257 14.8256285,10.7055961 14.4525547,10.6812652 C14.2497972,10.6650446 14.1686942,10.5352798 14.2011354,10.3406326 C14.2497972,10.0648824 14.3065693,9.7891322 14.3714517,9.513382 C14.4201135,9.29440389 14.5742092,9.16463909 14.8012976,9.15652879 C15.2879157,9.14030819 15.7745337,9.17274939 16.2449311,9.31873479 C16.6342255,9.44038929 16.8856448,9.7080292 16.9748581,10.1946472 Z" id="Path" fill="#163152"></path>
                <path d="M10.8840227,18.7185726 C10.6731549,18.6942417 10.4541768,18.6861314 10.243309,18.6374696 C9.22952149,18.4184915 8.72668289,17.7128954 8.87266829,16.6423358 C9.02676399,15.5231144 9.32684509,14.4282238 9.5620438,13.325223 C9.8134631,12.1248986 10.0973236,10.9326845 10.3406326,9.7404704 C10.4136253,9.36739659 10.6001622,9.21330089 10.9813463,9.22952149 C11.3544201,9.25385239 11.7356042,9.22952149 12.1167883,9.23763179 C12.5628548,9.23763179 12.6358475,9.32684509 12.5385239,9.7729116 C12.1573398,11.5085158 11.7761557,13.24412 11.4030819,14.9797242 C11.297648,15.4825629 11.1841038,15.9772912 11.1192214,16.4882401 C11.0786699,16.8288727 11.0867802,17.1776156 11.5815085,17.2262774 C11.7437145,17.242498 11.784266,17.3965937 11.7518248,17.5425791 C11.703163,17.8183293 11.6463909,18.0940795 11.5815085,18.3698297 C11.4760746,18.7510138 11.1678832,18.7185726 10.8840227,18.7185726 Z" id="Path" fill="#163152"></path>
                <path d="M63.3819951,19.8134631 C63.7793998,19.837794 64.1605839,19.9432279 64.298459,20.3568532 C64.4444444,20.7866991 64.3714517,21.216545 64.0308191,21.5571776 C63.8848337,21.7112733 63.6901865,21.8167072 63.487429,21.9708029 C64.0145985,22.2303325 64.1930251,22.6520681 64.0713706,23.2035685 C63.9334955,23.8199513 63.5766423,24.2416869 62.9683698,24.4363341 C62.5466342,24.5660989 62.1167883,24.5904298 61.6869424,24.5012165 C60.8353609,24.3390105 60.5352798,23.4144363 61.0867802,22.6196269 C61.2895377,22.3114355 61.5815085,22.1248986 61.9302514,21.9626926 C61.2489862,21.2814274 61.4436334,20.3568532 62.3114355,19.9594485 C62.6601784,19.8053528 63.0170316,19.7891322 63.3819951,19.8134631 Z M62.6682887,22.2952149 L62.6601784,22.2952149 C62.1573398,22.2871046 61.6950527,22.7493917 61.6707218,23.2846715 C61.6545012,23.649635 61.9302514,23.9172749 62.3114355,23.9172749 C62.8142741,23.9172749 63.2603406,23.4712084 63.2684509,22.9521492 L63.2684509,22.9521492 C63.2747136,22.6452763 63.1407318,22.4254517 62.9001144,22.3374876 C62.8311203,22.3115386 62.7532825,22.2970626 62.6682887,22.2952149 L62.6682887,22.2952149 Z M63.0089213,20.4298459 C62.6358475,20.4298459 62.2952149,20.7785888 62.3195458,21.135442 L62.3189891,21.1114006 C62.318997,21.1194078 62.3191813,21.1274228 62.3195458,21.135442 C62.3438767,21.4355231 62.4979724,21.6058394 62.7656123,21.6139497 L62.864236,21.6021973 C63.2223799,21.5317766 63.5333874,21.1705866 63.5036496,20.8434712 C63.4793187,20.5515004 63.2846715,20.4298459 63.0089213,20.4298459 Z" id="Combined-Shape" fill="#163152"></path>
                <path d="M66.836983,19.8053163 C67.4533658,19.8134631 67.891322,20.1297648 67.9643147,20.7380373 C68.1103001,21.9059205 67.8669911,22.9927007 67.1046229,23.9091646 C66.5612328,24.5742092 65.6609895,24.7283049 64.9067315,24.3471208 C64.8012976,24.2903487 64.6147607,24.2579075 64.7120843,24.0713706 L64.764106,23.9597622 C64.8256285,23.8298639 64.9013247,23.7163197 65.1094891,23.7793998 C65.2635848,23.8280616 65.4257908,23.8523925 65.5798865,23.8767234 C66.350365,23.9983779 66.9505272,23.4712084 66.9910787,22.6196269 C66.5774534,22.9764801 66.1151663,23.0413625 65.620438,22.9034874 C65.3041363,22.8142741 65.1013788,22.6115166 65.0040552,22.3195458 C64.6066504,21.1435523 65.5879968,19.7972425 66.836983,19.8053163 Z M66.2043796,20.6326034 C65.9397976,20.8707271 65.8424499,21.184376 65.7979433,21.4503573 L65.7890277,21.507708 L65.7890277,21.507708 L65.7745337,21.62206 C65.7502028,21.9626926 65.782644,22.1816707 66.0340633,22.2789943 C66.2935929,22.3844282 66.5612328,22.3600973 66.7883212,22.1654501 C67.080292,21.9059205 67.1695053,21.5490673 67.2343877,21.1922141 C67.2723229,20.9835701 67.2658984,20.7749261 67.1382662,20.623918 C67.1016827,20.5775195 67.0531401,20.5366903 66.9910787,20.5028386 C66.7153285,20.3487429 66.431468,20.4379562 66.2043796,20.6326034 Z" id="Combined-Shape" fill="#163152"></path>
                <path d="M43.3901054,19.7891322 C43.730738,19.7891322 44.0632603,19.8621249 44.379562,19.9837794 C44.4849959,20.0243309 44.6877534,20.0486618 44.5985401,20.243309 C44.5255474,20.405515 44.4849959,20.6163828 44.2092457,20.5596107 C43.9497161,20.5028386 43.6820762,20.4622871 43.4144363,20.4298459 C43.1549067,20.3974047 42.9034874,20.4217356 42.6682887,20.5596107 C42.43309,20.6974858 42.270884,20.892133 42.2789943,21.1759935 C42.2871046,21.459854 42.5060827,21.5490673 42.7169505,21.6463909 C42.9359286,21.7437145 43.1711273,21.8167072 43.3901054,21.9221411 C44.2011354,22.3033252 44.379562,23.24412 43.7712895,23.9091646 C43.1873479,24.5498783 41.7112733,24.7445255 40.973236,24.2903487 C40.8678021,24.2254663 40.7948094,24.1524736 40.8759124,24.0389294 C40.9651257,23.9010543 40.9975669,23.6982968 41.2570965,23.7631792 C41.5166261,23.8199513 41.784266,23.8605028 42.0519059,23.8848337 C42.2952149,23.9091646 42.5385239,23.9091646 42.7737226,23.8280616 C43.0413625,23.7388483 43.2765612,23.5928629 43.3090024,23.2846715 C43.3414436,22.9602595 43.1062449,22.8061638 42.8548256,22.6845093 C42.6520681,22.5871857 42.43309,22.5060827 42.2222222,22.4168694 C41.3949716,22.0356853 41.2003244,21.2489862 41.7518248,20.5271695 C42.1573398,19.9756691 42.7331711,19.7891322 43.3901054,19.7891322 Z" id="Path" fill="#163152"></path>
                <path d="M71.6058394,20.3974047 C71.459854,21.0948905 71.3138686,21.7923763 71.1597729,22.4898621 C71.1111111,22.6926196 71.1273317,22.8061638 71.3706407,22.7818329 C71.4760746,22.7737226 71.62206,22.7656123 71.5977291,22.9278183 C71.5733982,23.081914 71.6058394,23.3657745 71.3949716,23.3495539 C70.8840227,23.3090024 70.9245742,23.6658556 70.8678021,23.9659367 C70.7623682,24.4768856 70.6731549,24.5336577 70.162206,24.4768856 C69.9594485,24.4525547 69.9270073,24.379562 69.9594485,24.1849148 C70.0973236,23.3738848 70.0892133,23.3738848 69.2619627,23.3738848 C69.2295215,23.3819951 69.18897,23.3819951 69.1484185,23.3819951 C68.9213301,23.3819951 68.6861314,23.3738848 68.459043,23.3819951 C68.1508516,23.3982157 68.1589619,23.2278994 68.2562855,23.0251419 C68.296837,22.9440389 68.3698297,22.8710462 68.4266018,22.8061638 C69.1970803,21.9221411 69.9756691,21.0462287 70.7461476,20.162206 C70.8353609,20.0648824 70.9083536,19.9513382 71.0462287,19.9026764 C71.5328467,19.7485807 71.703163,19.9026764 71.6058394,20.3974047 Z M70.3974047,21.4274128 C70.0405515,21.8572587 69.675588,22.2871046 69.2538524,22.7818329 L69.2603987,22.7813877 L69.2538524,22.7899432 L69.2538524,22.7899432 L70.0567721,22.7899432 C70.1540957,22.7899432 70.2595296,22.7899432 70.2838605,22.6682887 C70.3142065,22.5165585 70.3525007,22.3670992 70.3881219,22.2177866 C70.4479283,21.9701238 70.499793,21.7181517 70.4947283,21.459854 C70.4622871,21.4517437 70.4298459,21.4355231 70.3974047,21.4274128 Z" id="Combined-Shape" fill="#163152"></path>
                <path d="M47.9562044,21.5977291 C48.3536091,21.1273317 48.7753447,20.9651257 49.3025142,21.1030008 C49.7404704,21.2246553 49.9837794,21.5247364 50,21.9789132 C50.0081103,22.4249797 49.8459043,22.8467153 49.7810219,23.2846715 C49.7485807,23.5117599 49.6269262,23.7226277 49.8864558,23.9416058 C50.0648824,24.0957015 49.8621249,24.4282238 49.6107056,24.4363341 C49.1159773,24.4525547 48.8483374,24.1768045 48.9051095,23.6820762 C48.9618816,23.24412 49.0754258,22.8142741 49.1484185,22.3763179 C49.1970803,22.0924574 49.2376318,21.7761557 48.8888889,21.6545012 C48.5482563,21.5328467 48.2887267,21.7112733 48.1021898,21.9951338 C47.8588808,22.3844282 47.8426602,22.838605 47.7372263,23.2684509 C47.6723439,23.5442011 47.6074615,23.8199513 47.56691,24.0957015 C47.5344688,24.298459 47.4939173,24.4363341 47.2262774,24.4444444 C46.674777,24.4525547 46.674777,24.4687753 46.7883212,23.9253852 C46.918086,23.3171127 47.0397405,22.7169505 47.161395,22.108678 C47.1857259,21.9789132 47.2668289,21.8167072 47.1208435,21.7356042 C46.8775345,21.5977291 46.9586375,21.4111922 47.0316302,21.2489862 C47.1289538,21.0381184 47.3317113,21.1273317 47.4939173,21.1516626 C47.729116,21.1841038 47.8832117,21.3057583 47.9562044,21.5977291 Z" id="Path" fill="#163152"></path>
                <path d="M56.0097324,21.1111111 C56.512571,21.2408759 56.7721006,21.6788321 56.6991079,22.2384428 C56.6261152,22.8629359 56.4152474,23.0575831 55.7907543,23.0738037 C55.6285483,23.081914 55.4825629,23.081914 55.3365775,23.081914 C55.214923,23.081914 55.0851582,23.0575831 54.9716139,23.0900243 C54.8012976,23.1305758 54.4931062,22.919708 54.4931062,23.3171127 C54.4931062,23.649635 54.5904298,23.9010543 54.9635036,23.9578264 C55.2554745,23.9983779 55.5312247,23.9334955 55.7988646,23.8442822 C55.9691809,23.7875101 56.0746148,23.7956204 56.1476075,23.9821573 C56.2206002,24.1768045 56.1151663,24.2660178 55.9691809,24.3227899 C55.4339011,24.5498783 54.8742903,24.6147607 54.3146796,24.4363341 C53.8848337,24.298459 53.6982968,23.9578264 53.6820762,23.5360908 C53.6577453,22.8467153 53.811841,22.1978913 54.2579075,21.6463909 C54.7201946,21.0867802 55.3203569,20.9326845 56.0097324,21.1111111 Z M55.2074938,21.6778183 L55.13382,21.7193836 C54.86618,21.8815896 54.6553122,22.1492295 54.6796431,22.43309 C54.6958637,22.6358475 55.0202758,22.4817518 55.1987024,22.5385239 C55.2186095,22.5318882 55.2393209,22.5275315 55.2606173,22.5248321 L55.326042,22.5217427 C55.3482889,22.5219316 55.3709015,22.5231869 55.3936603,22.5248686 L55.5302132,22.5349593 C55.6650111,22.5399315 55.7892797,22.514193 55.8556367,22.3195458 L55.8803695,22.2288665 C55.8924286,22.1683348 55.8955024,22.1078977 55.8888345,22.0490685 C55.8754986,21.9247894 55.8231955,21.8155486 55.7258719,21.7274939 L55.6571878,21.6732563 C55.5868562,21.6283962 55.5119627,21.6109084 55.4359286,21.6139497 C55.3576135,21.6169911 55.2817696,21.6405616 55.2074938,21.6778183 Z" id="Combined-Shape" fill="#163152"></path>
                <path d="M11.8085969,7.85077048 C11.703163,7.85077048 11.5896188,7.85077048 11.4841849,7.85077048 C10.7137064,7.85077048 10.7137064,7.84266018 10.8678021,7.11273317 C10.9407948,6.78832117 11.0218978,6.46390916 11.0867802,6.13138686 C11.135442,5.84752636 11.2895377,5.70154096 11.5815085,5.70154096 C12.0356853,5.70154096 12.4979724,5.70154096 12.9521492,5.70154096 C13.2360097,5.70154096 13.3414436,5.83941606 13.2846715,6.10705596 C13.1873479,6.55312247 13.0981346,6.99918897 13.000811,7.44525547 C12.9440389,7.71289538 12.7899432,7.86699108 12.4898621,7.85077048 C12.270884,7.84266018 12.0437956,7.85077048 11.8085969,7.85077048 Z" id="Path" fill="#163152"></path>
                <path d="M60.5271695,19.7972425 C60.5190592,20.3000811 60.3730738,20.7218167 60.2919708,21.1516626 C60.0892133,22.1492295 59.8783455,23.1549067 59.6674777,24.1524736 C59.6107056,24.4201135 59.0754258,24.6066504 58.864558,24.4282238 C58.7266829,24.3146796 58.8240065,24.1768045 58.8483374,24.05515 C59.0429846,23.1062449 59.2376318,22.1573398 59.4403893,21.216545 C59.4566099,21.1273317 59.4647202,21.0381184 59.4890511,20.8840227 C59.2376318,20.9813463 59.026764,21.0462287 58.8240065,21.1435523 C58.540146,21.2733171 58.5239254,21.1516626 58.5725872,20.9245742 C58.6050284,20.7785888 58.6293593,20.6244931 58.783455,20.5596107 C59.351176,20.3000811 59.918897,20.0648824 60.5271695,19.7972425 Z" id="Path" fill="#163152"></path>
                <path d="M51.8248175,24.5336577 C50.9164639,24.5336577 50.486618,24.05515 50.5920519,23.1549067 C50.6407137,22.7412814 50.7380373,22.3357664 50.9407948,21.9626926 C51.3706407,21.1597729 52.4412003,20.8029197 53.24412,21.2003244 C53.3657745,21.2652068 53.5928629,21.3057583 53.4793187,21.5328467 C53.3901054,21.7112733 53.2522303,21.8085969 53.0170316,21.7437145 C52.1654501,21.5085158 51.7680454,21.7356042 51.5247364,22.5790754 C51.4760746,22.7493917 51.4436334,22.919708 51.4274128,23.0900243 C51.3544201,23.8361719 51.703163,24.1119221 52.4249797,23.892944 C52.4898621,23.8767234 52.5547445,23.8605028 52.6196269,23.8361719 C52.7737226,23.7712895 52.8710462,23.8199513 52.9359286,23.974047 C53.0089213,24.1443633 52.9278183,24.2254663 52.7980535,24.298459 C52.4979724,24.4768856 52.1735604,24.5336577 51.8248175,24.5336577 Z" id="Path" fill="#163152"></path>
                <path d="M45.6934307,21.1273317 C46.0016221,21.0705596 46.107056,21.1841038 46.025953,21.5247364 C45.8961882,22.0600162 45.7907543,22.6034063 45.6934307,23.1386861 C45.6447689,23.4225466 45.4663423,23.7064071 45.7907543,23.9821573 C45.94485,24.1200324 45.7177616,24.4363341 45.4906732,24.4444444 C45.0040552,24.460665 44.703974,24.1768045 44.785077,23.6901865 C44.9148418,22.9115977 45.0932685,22.1330089 45.2392539,21.3625304 C45.2879157,21.0948905 45.4825629,21.1192214 45.6934307,21.1273317 Z" id="Path" fill="#163152"></path>
                <path d="M45.8150852,20.5271695 C45.7096513,20.4703974 45.458232,20.6569343 45.4501217,20.3406326 C45.4339011,19.918897 45.5879968,19.7242498 45.9691809,19.7485807 C46.107056,19.756691 46.350365,19.6188159 46.3422547,19.9432279 C46.3260341,20.3892944 46.2206002,20.5190592 45.8150852,20.5271695 Z" id="Path" fill="#163152"></path>
            </g>
        </g>
    </g>
</svg>