<?xml version="1.0" encoding="UTF-8"?>
<svg width="41px" height="41px" viewBox="0 0 41 41" version="1.1" xmlns="http://www.w3.org/2000/svg" xmlns:xlink="http://www.w3.org/1999/xlink">
    <title>guaranty_trust_bank</title>
    <g id="Page-1" stroke="none" stroke-width="1" fill="none" fill-rule="evenodd">
        <g id="payment-icons" transform="translate(-3960.000000, -1026.000000)">
            <g id="guaranty_trust_bank" transform="translate(3960.473298, 1026.013547)">
                <polygon id="Fill-1" fill="#C64E2C" points="0 40 40 40 40 0 0 0"></polygon>
                <polyline id="Fill-4" fill="#FFFFFE" points="10.0683066 22.6501248 10.0683066 23.6292335 11.7889483 23.6292335 11.7889483 28.8001426 12.9686988 28.8001426 12.9686988 23.5925847 14.5684135 23.5925847 14.5684135 22.6137611 10.0683066 22.6501248"></polyline>
                <path d="M9.18659537,23.8605348 L9.18659537,22.8871301 C8.23500891,22.4551872 7.14766488,22.329697 6.02024955,22.8871301 C4.18324421,23.7075223 4.1199287,27.7668449 5.95565062,28.5665597 C7.00634581,29.1050267 9.21226381,28.8511943 9.42445633,28.3810339 L9.42445633,25.163066 L7.2514795,25.163066 L7.2514795,26.011836 L8.2116221,26.011836 L8.2116221,27.7066667 C5.05283422,29.2345098 4.46702317,21.8596791 9.18659537,23.8605348" id="Fill-5" fill="#FFFFFE"></path>
                <path d="M15.3303387,22.5306239 L15.3303387,28.7499465 L18.4412121,28.7499465 C20.034795,28.1778253 20.0989661,25.7226381 18.4412121,25.4621034 C19.9660606,25.2954011 20.0420677,22.4996791 17.4120499,22.4926916 L15.3303387,22.5306239 Z M16.4995365,23.4766488 L17.6306595,23.4766488 C18.5685561,23.6511943 18.230303,25.0387166 17.5920143,25.0789305 L16.4995365,25.0789305 L16.4995365,23.4766488 Z M16.4995365,25.955508 L17.6306595,25.955508 C18.5685561,26 18.8085561,27.7588592 17.5920143,27.7533108 L16.4995365,27.7533108 L16.4995365,25.955508 L16.4995365,25.955508 Z" id="Fill-6" fill="#FFFFFE"></path>
                <path d="M21.7413191,26.6750802 C21.9868806,26.3550802 22.7850267,26.3687701 23.3098039,26.5214973 L23.3098039,27.3390374 C22.4490553,28.272656 21.0442781,27.8468449 21.7413191,26.6750802 M20.8141176,24.2718004 L20.8141176,25.2 C21.6481996,24.9645633 23.4499822,24.3184314 23.2838503,25.6934046 C21.6958289,25.5853119 20.6133333,25.8709447 20.4325134,26.8581818 C20.1309091,28.9942246 22.4169697,29.197861 23.3856684,28.1517291 L23.3856684,28.6549733 L24.4831373,28.6549733 L24.4831373,24.9023886 C24.2164706,23.701533 22.4108378,23.5453832 20.8141176,24.2718004" id="Fill-7" fill="#FFFFFE"></path>
                <path d="M26.7585027,25.3691266 C27.0444207,25.0593939 28.5685561,24.477148 28.7954367,25.3691266 L28.7954367,28.674082 L30.0186809,28.674082 L30.0186809,25.1683422 C29.7522995,23.7052406 28.3656328,23.449697 26.6735116,24.4345098 L26.6735116,23.8834938 L25.5190018,23.8834938 L25.5190018,28.6909091 L26.7418182,28.6909091 L26.7585027,25.3691266" id="Fill-8" fill="#FFFFFE"></path>
                <polyline id="Fill-9" fill="#FFFFFE" points="33.8541176 23.8502674 32.2583957 26.0032799 33.9559358 28.6404278 35.4325847 28.6072014 33.5653476 26.0700178 35.2460606 23.9003209 33.8541176 23.8502674"></polyline>
                <polygon id="Fill-10" fill="#FFFFFE" points="30.9341889 28.6404278 32.1396078 28.6404278 32.1396078 22.2814973 30.9341889 22.2814973"></polygon>
                <polygon id="Fill-15" fill="#FFFFFE" points="22.5267023 17.6055615 32.4900535 17.6055615 32.4900535 7.62980392 22.5267023 7.62980392"></polygon>
            </g>
        </g>
    </g>
</svg>